<?xml version="1.0" standalone="no"?>
<!DOCTYPE svg PUBLIC "-//W3C//DTD SVG 20010904//EN"
 "http://www.w3.org/TR/2001/REC-SVG-20010904/DTD/svg10.dtd">
<svg version="1.0" xmlns="http://www.w3.org/2000/svg"
 width="2539.000000pt" height="2537.000000pt" viewBox="0 0 2539.000000 2537.000000"
 preserveAspectRatio="xMidYMid meet">
<metadata>
Created by potrace 1.16, written by Peter Selinger 2001-2019
</metadata>
<g transform="translate(0.000000,2537.000000) scale(0.100000,-0.100000)"
fill="#000000" stroke="none">
<path d="M13118 24364 c-37 -7 -84 -22 -105 -32 -21 -10 -74 -30 -118 -45
-204 -65 -441 -143 -469 -154 -21 -8 -92 -11 -228 -9 -139 3 -213 0 -250 -10
-247 -61 -347 -72 -431 -47 -28 8 -65 27 -82 42 -16 15 -45 34 -62 41 -18 7
-33 16 -33 20 0 5 -21 15 -47 23 -40 13 -105 15 -373 13 -179 -1 -345 1 -369
6 -150 30 -534 -100 -951 -322 -49 -26 -114 -55 -191 -83 -112 -42 -143 -63
-222 -150 -43 -47 -102 -101 -132 -121 -30 -20 -76 -59 -102 -88 -26 -28 -61
-65 -78 -83 -123 -130 -219 -260 -231 -311 -3 -16 -15 -45 -25 -64 -11 -19
-26 -57 -33 -85 -8 -27 -26 -88 -41 -135 -39 -124 -48 -177 -39 -245 4 -33 6
-113 5 -177 -1 -93 2 -132 20 -195 16 -58 22 -111 24 -203 1 -69 5 -143 8
-165 3 -22 13 -85 21 -140 8 -55 18 -127 21 -160 4 -33 15 -77 26 -98 37 -72
18 -167 -46 -226 -23 -21 -26 -30 -21 -65 6 -38 3 -45 -33 -84 -22 -24 -45
-60 -52 -79 -11 -35 -10 -38 17 -60 l29 -24 -28 10 c-25 10 -29 7 -57 -31 -17
-23 -32 -51 -34 -62 -2 -12 -8 -46 -14 -76 -6 -32 -6 -65 -1 -78 13 -34 13
-98 0 -181 -9 -54 -10 -86 -2 -120 6 -25 13 -93 16 -150 3 -58 10 -122 15
-143 6 -20 12 -75 15 -120 2 -46 10 -119 19 -163 8 -44 18 -96 21 -115 21
-117 55 -245 116 -425 6 -16 13 -48 15 -69 3 -22 10 -48 16 -59 9 -18 25 -96
64 -312 8 -44 23 -109 33 -145 11 -36 24 -90 30 -120 24 -138 82 -316 117
-360 19 -25 25 -67 13 -94 -14 -30 10 -113 45 -161 44 -58 68 -127 73 -212 6
-80 5 -82 -23 -108 -15 -14 -54 -40 -85 -56 -31 -17 -69 -43 -84 -59 l-26 -28
41 -53 c23 -30 57 -74 75 -99 18 -25 57 -66 87 -91 29 -25 60 -59 68 -75 8
-16 25 -44 38 -63 12 -19 22 -40 22 -48 0 -7 11 -30 25 -51 18 -28 27 -61 35
-132 14 -124 18 -133 36 -91 45 107 55 323 41 951 -8 353 -8 366 11 405 11 22
28 78 37 125 9 47 23 99 32 115 8 17 23 69 33 116 24 114 77 228 123 263 20
15 50 50 67 77 18 27 36 49 40 49 5 0 22 12 39 26 25 21 31 33 29 62 0 22 9
58 24 87 29 57 43 142 28 160 -7 9 -7 21 0 39 16 44 12 54 -31 82 -44 27 -43
26 -23 107 5 21 1 34 -15 51 l-22 23 24 36 c14 20 28 53 32 74 9 50 35 92 90
142 24 22 50 52 57 66 8 14 38 43 67 65 40 31 62 40 92 40 45 0 106 28 115 53
6 18 44 24 44 7 0 -5 13 -10 28 -10 19 0 39 11 62 35 19 20 40 33 47 31 7 -3
25 5 40 17 74 60 121 73 130 37 7 -27 38 -34 65 -16 29 20 52 20 83 0 20 -13
33 -14 63 -7 21 6 53 8 71 5 21 -3 38 1 50 12 17 16 20 16 35 0 16 -15 20 -15
62 1 35 13 60 15 113 10 44 -4 71 -3 75 4 4 5 12 8 19 6 20 -8 77 33 77 55 0
15 7 20 24 20 14 0 37 11 53 24 26 22 29 23 67 10 22 -8 45 -13 52 -10 7 2 30
-5 53 -16 24 -12 48 -17 59 -13 37 15 107 15 141 -1 18 -9 68 -20 110 -25 132
-15 153 -20 158 -40 6 -21 28 -25 39 -8 6 11 25 9 124 -11 30 -7 73 -13 95
-13 22 -1 55 -10 73 -20 19 -10 46 -18 60 -17 48 4 61 0 80 -20 11 -12 37 -24
58 -27 24 -4 51 -19 73 -40 35 -33 59 -41 77 -23 12 12 219 -14 258 -32 23
-10 29 -9 46 10 12 13 37 23 67 27 27 3 62 10 79 15 17 6 40 10 52 10 12 0 22
6 22 14 0 38 70 63 87 31 8 -13 16 -12 61 5 48 18 55 19 82 5 16 -8 42 -15 58
-15 31 0 42 18 42 68 0 15 6 22 19 22 10 0 24 6 30 14 14 16 62 28 113 27 21
0 58 8 84 19 25 11 66 20 92 20 26 0 64 9 90 22 50 24 75 17 80 -21 3 -21 7
-22 58 -15 43 5 61 2 91 -13 21 -11 67 -23 103 -26 73 -7 129 -27 178 -64 40
-30 132 -57 146 -43 14 14 46 12 102 -7 58 -20 97 -46 115 -79 7 -14 24 -27
38 -31 14 -3 33 -11 41 -18 8 -7 33 -19 55 -26 47 -16 82 -38 151 -96 28 -24
56 -43 62 -43 6 0 30 -18 53 -40 24 -22 51 -40 60 -40 9 0 19 -7 23 -15 3 -8
11 -15 19 -15 16 0 57 -41 57 -57 0 -6 20 -13 45 -16 36 -5 52 -15 85 -51 23
-25 54 -48 71 -51 16 -4 29 -11 29 -15 0 -5 14 -23 30 -40 17 -17 30 -35 30
-41 0 -6 18 -37 40 -69 47 -70 53 -119 18 -145 -23 -15 -23 -16 -5 -46 23 -41
22 -54 -10 -77 -25 -18 -26 -22 -14 -48 9 -20 9 -30 2 -32 -15 -5 -41 -32 -41
-42 0 -5 8 -16 17 -25 12 -13 14 -21 6 -34 -16 -25 -42 -25 -68 -1 -37 35 -49
15 -20 -34 14 -24 25 -53 25 -65 0 -12 18 -41 39 -64 l39 -42 7 28 c5 17 3 33
-4 40 -6 6 -11 20 -11 31 0 19 0 19 21 0 32 -29 48 -66 42 -97 -4 -22 1 -35
25 -60 37 -38 52 -75 52 -127 0 -25 7 -46 19 -57 10 -10 24 -35 31 -56 7 -22
18 -50 25 -64 13 -25 10 -59 -7 -69 -6 -4 -28 13 -49 37 -30 35 -37 50 -33 71
3 15 -2 40 -10 57 -9 16 -16 43 -16 58 0 15 -9 39 -20 53 -11 14 -20 32 -20
40 0 36 -75 90 -123 90 -14 0 2 -72 21 -94 16 -18 16 -19 -3 -11 -11 4 -31 10
-44 13 -24 5 -24 4 -8 -19 10 -13 17 -38 17 -57 l0 -33 48 2 c26 1 56 -3 67
-10 20 -13 55 -64 55 -81 0 -15 -52 -17 -98 -4 -30 9 -49 11 -56 4 -18 -18 14
-56 63 -77 40 -17 49 -25 55 -54 3 -18 18 -50 32 -71 14 -20 23 -42 19 -47 -9
-16 -36 -13 -57 6 -10 9 -21 13 -24 10 -14 -14 16 -121 41 -147 31 -33 31 -40
0 -40 -31 0 -31 -1 1 -86 23 -61 26 -84 26 -189 -1 -150 -19 -403 -37 -515
-30 -185 -48 -440 -46 -654 1 -214 22 -239 76 -93 29 80 49 113 147 244 81
107 119 139 148 123 33 -18 80 21 111 89 27 61 21 71 -45 71 l-55 0 -10 38
c-19 66 -13 118 19 179 17 31 30 63 30 71 0 8 12 36 27 61 30 51 56 118 113
296 22 66 45 134 51 150 6 17 15 44 20 60 30 102 91 271 109 299 11 18 20 40
20 48 0 7 9 31 20 53 11 22 20 44 20 49 0 5 9 19 19 30 11 12 47 73 81 136 34
63 75 136 91 161 16 25 29 53 29 63 0 9 13 34 29 54 16 20 35 57 41 82 12 45
59 130 72 130 18 0 38 65 48 150 6 52 21 118 35 152 14 34 25 77 25 96 0 37
69 218 100 260 10 15 33 61 49 103 36 91 97 201 117 212 8 5 29 38 46 75 17
37 46 89 65 116 26 38 33 58 33 97 0 77 19 148 67 243 l45 89 -10 66 c-9 64
-1 228 13 263 4 10 -1 24 -15 38 -12 12 -20 31 -18 44 1 13 -3 30 -10 39 -11
13 -9 28 9 87 17 56 20 84 15 129 -11 86 -12 154 -4 178 4 12 3 25 -1 28 -5 3
-12 33 -16 67 -7 74 -24 129 -76 255 -57 137 -79 168 -227 327 -62 66 -78 93
-111 189 -81 231 -95 249 -325 427 -81 63 -145 126 -222 221 -29 37 -86 96
-125 130 -40 35 -91 84 -113 109 -79 87 -212 210 -255 237 -25 14 -60 41 -78
59 -19 19 -41 34 -49 34 -8 0 -50 33 -93 74 -42 40 -86 76 -97 80 -11 3 -41
31 -67 60 -26 30 -73 69 -104 87 -32 17 -74 46 -93 64 -19 18 -47 35 -61 39
-15 3 -48 21 -75 41 -27 19 -69 46 -95 59 -54 29 -172 119 -211 161 -15 17
-53 48 -85 70 -31 22 -72 54 -89 72 -18 18 -63 49 -100 69 -38 21 -78 45 -89
55 -36 32 -128 67 -218 84 -49 9 -107 23 -130 31 -27 10 -74 14 -141 12 -309
-6 -524 2 -601 21 -55 14 -216 12 -297 -5z"/>
<path d="M9941 18219 c-11 -17 -29 -36 -41 -43 -13 -6 -30 -21 -38 -33 -21
-33 3 -30 38 6 16 16 34 25 40 21 22 -13 -12 -48 -57 -60 -33 -8 -63 -29 -124
-87 -84 -81 -169 -185 -169 -209 0 -28 55 -16 79 17 22 29 27 31 67 25 37 -5
57 0 115 26 l70 31 41 -21 c32 -16 46 -18 64 -10 29 14 80 -5 87 -33 5 -20 27
-31 101 -48 27 -7 77 -25 110 -41 33 -17 74 -30 89 -30 16 0 40 -9 54 -20 14
-11 33 -20 43 -20 10 0 28 -8 41 -19 13 -10 35 -22 49 -26 14 -4 34 -15 45
-25 11 -10 32 -23 48 -29 15 -6 27 -15 27 -21 0 -21 -41 -50 -70 -50 -35 0
-101 -25 -112 -43 -6 -9 -12 -9 -27 0 -17 11 -31 7 -96 -27 -42 -22 -84 -40
-93 -40 -10 0 -39 -11 -67 -25 -27 -13 -57 -25 -66 -25 -20 0 -49 -31 -49 -53
0 -10 -8 -17 -19 -17 -11 0 -22 -4 -25 -9 -3 -5 -45 -32 -93 -61 -103 -62
-174 -131 -198 -194 -27 -69 -15 -76 41 -25 55 51 119 96 180 127 157 80 609
102 711 35 40 -27 19 -67 -24 -45 -10 5 -52 13 -93 17 l-75 7 37 -26 c21 -15
43 -36 49 -48 10 -19 8 -25 -14 -44 -33 -28 -131 -41 -182 -24 -33 11 -39 10
-59 -9 -14 -13 -35 -21 -59 -21 -20 0 -37 -4 -37 -9 0 -11 -72 -47 -115 -57
-87 -21 -215 -108 -265 -179 -14 -20 -37 -52 -53 -72 -30 -39 -30 -51 -4 -67
13 -8 25 -7 48 7 44 24 59 22 59 -10 0 -16 10 -41 23 -57 20 -25 31 -29 83
-32 32 -1 78 -7 102 -12 69 -15 47 16 -45 62 -58 29 -103 80 -103 117 0 16 14
39 38 61 42 42 159 98 203 98 17 0 44 7 60 16 17 8 45 14 62 12 l32 -3 -3 -67
c-5 -86 1 -95 40 -63 34 29 65 29 82 2 9 -15 7 -22 -13 -38 -25 -20 -66 -25
-76 -9 -4 6 -11 8 -16 4 -13 -7 -2 -58 21 -104 19 -37 100 -119 139 -139 34
-19 148 -17 211 2 46 13 61 24 91 65 49 64 63 96 78 167 7 33 17 70 22 83 9
22 10 23 33 5 35 -26 126 -177 126 -210 0 -7 -60 -31 -132 -54 -120 -37 -137
-46 -173 -84 -44 -46 -118 -76 -138 -56 -6 6 -22 11 -35 11 -13 0 -31 4 -40 9
-9 4 -36 11 -59 15 -39 6 -43 4 -43 -14 0 -15 -7 -20 -25 -20 -18 0 -26 -7
-31 -27 -6 -21 -2 -31 20 -50 29 -25 47 -28 75 -13 13 6 17 17 14 35 -4 17 0
27 12 32 22 8 46 -22 38 -45 -9 -23 -46 -62 -59 -62 -17 0 -27 -31 -14 -44 25
-25 185 -4 277 35 40 17 48 18 61 6 21 -21 0 -53 -40 -61 -18 -3 -45 -18 -60
-33 -16 -15 -43 -32 -61 -38 -47 -15 -39 -30 18 -33 46 -3 70 2 200 44 44 13
256 98 294 117 36 18 77 75 63 89 -9 9 -32 5 -92 -15 -44 -15 -84 -27 -90 -27
-6 0 7 19 30 42 23 24 40 52 40 65 0 24 11 27 44 14 13 -5 26 -1 39 12 20 20
26 20 109 -4 43 -12 49 -11 68 6 22 20 26 64 9 97 -15 27 -3 65 22 73 11 4 24
18 29 31 8 20 14 23 34 18 16 -4 34 0 48 10 32 23 106 20 143 -4 17 -11 34
-20 39 -20 12 0 -3 91 -20 114 -8 11 -14 37 -14 58 0 20 -4 39 -9 43 -5 3 -12
18 -16 34 -3 16 -20 55 -36 87 -20 38 -28 66 -24 81 3 13 1 23 -4 23 -6 0 -22
11 -36 24 -21 20 -24 28 -16 44 6 11 8 22 4 25 -15 16 29 17 55 2 27 -16 31
-16 63 0 40 21 75 55 71 70 -2 5 2 4 9 -2 7 -7 21 -13 31 -13 11 0 18 -7 18
-20 0 -17 7 -20 53 -20 44 0 59 5 90 31 40 33 47 61 21 97 -10 14 -25 22 -45
22 -18 0 -29 5 -29 14 0 26 -44 86 -68 92 -12 3 -29 1 -37 -6 -22 -19 -57 9
-94 73 -33 59 -50 67 -136 67 -44 0 -70 18 -77 55 -2 14 -11 20 -28 20 -22 0
-25 -5 -28 -37 -3 -36 -5 -38 -36 -38 -22 0 -39 -8 -54 -25 -30 -34 -43 -24
-36 28 7 49 -10 120 -37 158 -14 19 -18 41 -16 80 l2 54 -50 1 c-27 1 -63 6
-80 12 -16 6 -75 20 -130 32 -55 12 -134 31 -175 42 -41 12 -104 24 -140 28
-36 3 -75 11 -87 18 -12 7 -39 12 -61 12 -31 0 -47 7 -78 36 -22 19 -51 43
-66 52 -16 9 -28 22 -28 29 0 7 -7 13 -15 13 -8 0 -15 -6 -15 -14 0 -8 -11
-17 -25 -20 -34 -9 -56 5 -27 15 56 21 8 64 -83 75 -34 4 -65 13 -71 22 -9 12
-21 13 -76 3 -72 -12 -100 -7 -96 18 3 19 -9 41 -23 41 -5 0 -18 -14 -28 -31z"/>
<path d="M13850 17416 c-14 -7 -59 -16 -100 -20 -41 -4 -97 -13 -125 -21 -68
-19 -151 -35 -181 -35 -17 0 -24 5 -24 20 0 36 -30 36 -62 1 -26 -29 -33 -32
-67 -26 -29 5 -43 2 -63 -14 -29 -23 -96 -28 -130 -10 -27 15 -132 -6 -171
-34 -16 -11 -47 -20 -69 -21 -55 -3 -82 -35 -75 -89 5 -38 5 -39 -21 -32 -15
3 -32 13 -38 21 -16 20 -31 18 -44 -7 -9 -17 -8 -23 6 -33 13 -10 16 -22 11
-54 -6 -34 -3 -45 18 -70 14 -17 25 -36 25 -43 0 -26 24 -79 37 -79 7 0 17 -9
23 -19 5 -11 19 -23 31 -26 11 -4 24 -18 29 -31 5 -13 21 -28 34 -34 13 -5 26
-15 28 -22 8 -24 -10 -89 -31 -112 -29 -31 -26 -43 9 -43 18 0 38 -8 49 -20
12 -13 38 -22 71 -26 55 -7 90 -28 163 -99 38 -37 38 -37 31 -96 -6 -53 -4
-61 12 -70 11 -5 80 -14 154 -21 141 -12 190 -19 328 -45 141 -27 134 -5 -23
74 -88 44 -105 57 -105 76 0 12 5 26 11 29 6 4 8 26 4 59 -8 58 -2 66 70 106
31 17 129 50 149 50 2 0 6 -53 8 -117 3 -107 7 -124 33 -177 40 -78 88 -112
190 -133 79 -16 81 -16 133 7 70 30 152 118 152 163 0 25 -8 39 -35 60 -38 30
-46 66 -20 87 13 10 19 10 34 -4 11 -10 22 -28 25 -42 4 -13 13 -24 20 -24 14
0 36 49 36 81 0 31 19 31 74 -1 60 -34 156 -132 156 -158 0 -9 -18 -44 -40
-77 -22 -33 -40 -64 -40 -69 0 -5 21 -5 48 -1 26 4 64 8 84 8 29 1 38 5 40 21
2 11 8 21 15 23 15 5 45 -51 37 -71 -5 -13 3 -16 43 -16 43 0 51 3 61 25 15
33 22 32 72 -10 64 -54 83 -45 73 34 -4 33 -2 41 10 41 12 0 15 12 13 63 -3
84 -34 135 -154 253 -72 71 -92 96 -90 115 2 19 -2 25 -22 27 -14 2 -29 8 -35
13 -5 5 -19 9 -31 9 -12 0 -33 9 -47 20 -14 11 -39 23 -56 26 -28 6 -29 8 -18
28 27 48 6 132 -35 138 -28 4 -69 78 -56 102 7 13 3 19 -21 27 -51 18 -35 43
25 41 34 -1 98 21 108 37 8 12 -71 111 -89 111 -18 0 -55 48 -55 71 0 30 46
25 54 -5 8 -34 33 -56 62 -56 17 0 24 -6 24 -20 0 -20 33 -35 66 -28 32 6 26
27 -15 48 -23 11 -41 27 -41 35 0 33 -25 65 -66 84 -23 11 -45 25 -49 31 -3 5
-26 10 -51 10 -40 0 -44 -2 -44 -25 0 -23 -3 -25 -47 -25 -27 0 -66 5 -88 11
-56 15 -139 17 -213 6 -51 -7 -71 -6 -100 6 -58 25 -75 27 -102 13z m545 -694
c179 -46 378 -154 362 -196 -5 -12 -13 -15 -34 -10 -42 10 -133 58 -177 93
-21 17 -48 31 -58 31 -11 0 -31 9 -45 20 -15 12 -41 20 -62 20 -20 0 -81 12
-136 26 -55 14 -112 28 -127 31 -16 3 -28 10 -28 16 0 18 189 0 305 -31z"/>
<path d="M8627 17183 c-9 -16 39 -310 63 -388 5 -16 15 -63 21 -102 22 -145
49 -64 52 154 l2 158 -34 65 c-18 36 -42 77 -53 93 -19 26 -42 35 -51 20z"/>
<path d="M16272 16624 c-79 -69 -81 -77 -75 -240 6 -161 23 -247 54 -280 35
-37 51 -18 78 93 13 54 27 112 32 128 4 17 10 66 14 110 3 44 8 105 11 137 5
48 3 59 -15 77 -12 12 -27 21 -33 21 -7 0 -37 -21 -66 -46z"/>
<path d="M9029 16313 c-22 -57 -45 -99 -76 -140 -18 -24 -33 -49 -33 -56 0
-20 -26 -87 -38 -99 -21 -21 -14 -73 12 -97 l24 -22 44 43 c24 24 67 62 94 84
57 47 74 88 74 177 0 63 -13 104 -38 123 -28 21 -52 16 -63 -13z"/>
<path d="M13690 16137 c0 -23 79 -82 106 -79 16 2 24 -2 24 -12 0 -19 69 -56
105 -56 14 0 34 -6 45 -12 16 -11 23 -10 37 5 17 17 17 19 1 28 -10 6 -18 16
-18 23 0 20 28 28 49 14 26 -16 71 -2 71 22 0 25 -14 33 -90 48 -111 21 -105
23 -104 -25 0 -24 -2 -43 -6 -43 -13 0 -28 24 -32 50 -3 23 -7 25 -51 25 -26
0 -51 5 -55 10 -12 18 -82 19 -82 2z"/>
<path d="M8780 15950 c-19 -12 -27 -99 -17 -175 9 -62 44 -144 87 -205 52 -72
90 -161 90 -211 0 -32 13 -48 73 -94 69 -52 114 -72 129 -57 18 18 -33 134
-113 255 -66 100 -71 113 -90 207 -10 56 -19 114 -19 131 0 23 -7 34 -35 50
-19 12 -35 27 -35 34 0 8 -6 18 -13 22 -7 4 -20 18 -28 30 -10 15 -19 19 -29
13z"/>
<path d="M15741 15895 c-36 -31 -75 -127 -66 -164 3 -15 22 -50 41 -79 43 -66
113 -270 121 -354 8 -88 -10 -123 -105 -213 -80 -75 -152 -177 -152 -214 0
-55 112 -47 170 12 16 17 36 51 45 77 15 46 44 79 128 151 43 36 92 125 102
185 4 21 14 55 23 74 39 86 18 262 -37 298 -27 18 -63 72 -79 120 -18 53 -52
93 -96 113 -53 24 -59 24 -95 -6z"/>
<path d="M11360 14421 c-54 -12 -99 -39 -105 -64 -4 -13 3 -48 15 -80 16 -43
19 -61 11 -76 -17 -31 -13 -56 14 -81 22 -21 34 -24 92 -22 74 3 105 18 165
79 24 25 54 43 85 52 26 7 61 17 77 22 16 5 44 9 61 9 44 0 59 19 39 49 -22
31 -79 64 -154 90 -71 23 -238 36 -300 22z"/>
<path d="M12482 14400 c-18 -11 -41 -20 -52 -20 -11 0 -20 -4 -20 -10 0 -5
-17 -10 -38 -10 -46 0 -90 -42 -99 -95 -5 -29 -10 -35 -30 -35 -43 0 -63 -18
-63 -55 0 -23 -5 -35 -17 -38 -10 -3 12 -4 49 -4 38 1 68 5 68 10 0 4 11 12
25 17 20 8 25 16 25 45 0 19 5 35 10 35 6 0 33 23 61 50 27 28 59 50 70 50 11
0 25 5 32 10 7 6 20 16 30 23 12 8 16 19 11 30 -8 22 -22 21 -62 -3z"/>
<path d="M12760 14345 c-100 -19 -177 -44 -208 -69 -15 -12 -47 -35 -71 -51
-47 -32 -77 -82 -60 -100 7 -7 15 -4 24 8 15 20 74 54 120 68 23 7 41 4 82
-13 29 -13 53 -28 53 -33 0 -6 21 -31 48 -57 77 -75 121 -90 231 -81 69 6 79
9 107 39 46 48 94 139 94 176 0 96 -211 153 -420 113z"/>
<path d="M12220 14082 c-14 -2 -27 -7 -30 -11 -9 -12 -61 -31 -86 -31 -46 0
-64 -17 -57 -52 8 -41 41 -73 76 -74 15 -1 34 -10 41 -19 10 -14 21 -17 45
-12 33 7 90 43 105 67 5 8 22 26 37 40 28 25 50 89 33 91 -28 4 -143 5 -164 1z"/>
<path d="M11660 13399 c-30 -4 -93 -22 -140 -39 -47 -17 -118 -42 -158 -56
-40 -13 -90 -33 -110 -43 -56 -28 -205 -59 -324 -66 -95 -7 -113 -11 -153 -36
-25 -16 -45 -33 -45 -38 0 -5 -9 -13 -20 -16 -11 -3 -27 -14 -37 -23 -9 -9
-21 -17 -26 -17 -15 0 -31 -31 -24 -47 4 -11 28 -17 86 -22 44 -4 83 -12 86
-17 4 -5 18 -9 32 -9 13 0 37 -6 51 -14 15 -8 39 -17 55 -21 15 -3 45 -21 66
-40 21 -19 45 -35 53 -35 18 0 58 45 58 66 0 9 7 14 18 12 9 -1 22 1 29 5 7 4
29 -3 51 -17 42 -26 59 -64 43 -94 -11 -20 5 -63 27 -70 8 -2 12 10 12 42 0
25 3 46 6 46 19 0 85 -47 91 -64 8 -26 4 -64 -9 -90 -8 -15 -2 -26 32 -61 34
-35 42 -49 38 -70 -4 -17 -1 -28 9 -32 8 -3 11 -13 7 -25 -11 -36 56 -111 151
-169 30 -18 57 -40 60 -49 6 -18 68 -60 89 -60 22 0 28 -17 10 -24 -9 -3 -40
-6 -69 -6 -44 0 -57 -4 -69 -22 -27 -38 -20 -65 24 -93 31 -20 40 -31 40 -54
0 -32 17 -50 79 -81 40 -20 58 -22 230 -21 232 0 280 3 492 32 180 24 244 114
127 177 -28 15 -59 31 -69 37 -11 5 -19 14 -19 20 1 13 38 40 70 50 14 4 36
16 49 26 13 11 36 19 51 19 15 0 55 19 91 42 35 23 76 49 91 58 15 8 66 48
113 89 66 56 85 78 82 93 -5 17 3 39 27 77 7 11 12 9 27 -10 10 -13 19 -22 21
-19 75 97 80 108 54 129 -16 13 -46 5 -46 -13 0 -13 -54 -48 -62 -40 -14 14
-60 -19 -74 -53 -9 -21 -23 -46 -32 -56 -16 -19 -35 -49 -51 -83 -5 -12 -23
-24 -39 -27 -16 -3 -41 -9 -54 -12 -20 -5 -33 1 -62 30 -45 43 -46 77 -4 85
20 4 34 18 52 52 30 56 26 74 -20 93 -30 12 -34 18 -34 53 0 31 6 42 29 60 32
24 123 38 179 27 29 -5 33 -10 30 -30 -7 -32 15 -39 45 -14 30 23 41 24 70 5
12 -8 38 -15 57 -16 19 0 43 -1 53 -1 9 0 17 -4 17 -9 0 -18 32 3 41 27 5 13
24 30 43 38 18 8 36 21 39 29 3 8 31 31 62 50 l56 36 51 -16 c39 -14 55 -15
69 -6 26 16 40 15 69 -8 43 -33 70 -25 113 33 20 28 37 60 37 70 0 10 8 21 18
24 27 10 29 18 28 112 -1 101 -12 123 -60 119 -19 -1 -44 7 -61 19 -17 12 -51
24 -78 28 -40 5 -48 4 -53 -12 -3 -10 -10 -28 -16 -40 -8 -16 -6 -29 5 -52 14
-28 14 -33 1 -46 -9 -8 -21 -15 -29 -15 -7 0 -15 -5 -17 -12 -9 -26 -192 -11
-343 28 -55 14 -143 41 -195 59 -140 48 -220 72 -265 80 -22 3 -53 9 -70 13
-40 8 -133 8 -167 -1 -33 -9 -37 -33 -8 -42 11 -3 20 -10 20 -14 0 -12 -91
-32 -104 -23 -16 13 -165 8 -199 -6 -30 -13 -44 -9 -64 19 -8 10 -44 24 -88
34 -41 9 -77 21 -81 26 -13 22 -55 29 -88 15 -35 -15 -66 -6 -66 18 0 25 -98
32 -210 15z m585 -692 c22 -12 41 -31 43 -42 2 -19 -56 -124 -70 -125 -4 0
-10 9 -13 20 -15 47 -75 2 -75 -57 0 -44 -17 -13 -24 43 -5 37 -3 53 6 57 13
5 40 51 57 100 13 33 24 33 76 4z"/>
<path d="M14436 11925 c-40 -30 -121 -101 -140 -123 -28 -32 -256 -227 -329
-282 -32 -24 -62 -51 -67 -60 -10 -18 -126 -99 -198 -137 -25 -13 -70 -44
-102 -69 -31 -24 -59 -44 -62 -44 -4 0 -35 -19 -70 -43 -148 -101 -378 -227
-414 -227 -8 0 -29 -7 -46 -16 -100 -52 -370 -86 -568 -73 -69 5 -177 11 -240
14 -63 3 -145 12 -181 20 -58 13 -91 16 -169 15 -32 -1 -209 11 -285 19 -87 9
-139 23 -164 44 -9 7 -47 26 -86 41 -38 15 -85 34 -103 42 -18 8 -37 14 -42
14 -19 0 -10 -21 13 -29 13 -5 28 -16 35 -24 7 -8 27 -20 45 -27 18 -7 45 -18
61 -24 17 -6 50 -22 75 -34 25 -13 81 -30 125 -37 105 -18 130 -41 122 -107
l-5 -48 39 0 c35 0 40 -3 46 -27 4 -16 12 -31 18 -35 6 -4 11 -17 11 -30 0
-16 7 -24 23 -26 15 -2 22 -10 22 -27 0 -14 7 -25 19 -28 10 -2 20 -16 23 -31
5 -23 -1 -31 -31 -52 -19 -13 -46 -24 -58 -24 -13 0 -23 -4 -23 -10 0 -5 -10
-10 -23 -10 -25 0 -47 -17 -47 -37 0 -7 9 -13 20 -13 27 0 25 -18 -2 -22 -22
-3 -23 -7 -20 -65 l4 -63 -32 0 c-27 0 -31 -3 -25 -17 4 -10 11 -34 14 -53 6
-30 10 -35 33 -32 32 3 41 -17 19 -44 -21 -27 -54 -44 -81 -44 -24 0 -23 -18
3 -34 13 -9 26 -6 57 12 82 47 126 14 46 -36 -24 -15 -54 -41 -66 -59 -18 -26
-29 -32 -66 -35 -28 -2 -49 2 -56 9 -5 7 -25 17 -44 23 -26 9 -34 17 -34 36 0
23 -12 29 -48 25 -7 -1 -20 12 -30 28 -9 17 -32 38 -49 48 -18 10 -33 23 -33
30 0 18 -50 73 -67 73 -8 0 -24 11 -35 25 -11 14 -25 25 -31 25 -7 0 -34 20
-61 45 -26 25 -56 45 -65 45 -9 0 -22 9 -29 20 -6 11 -29 29 -51 39 -22 11
-41 26 -43 32 -2 7 -13 14 -24 15 -10 2 -26 13 -34 25 -24 34 -129 139 -140
139 -5 0 -22 18 -36 40 -15 22 -30 40 -33 40 -4 0 -34 26 -68 58 -49 47 -97
109 -165 215 -14 21 -68 145 -68 155 0 5 -12 36 -26 68 -28 61 -84 304 -84
362 0 18 -12 78 -27 133 -35 130 -46 132 -63 9 -9 -64 -35 -137 -75 -210 -10
-18 -23 -26 -48 -28 l-35 -3 24 -59 c17 -43 24 -79 24 -127 0 -61 4 -74 38
-129 20 -33 47 -73 60 -90 13 -16 55 -81 94 -144 66 -107 161 -236 199 -270
37 -33 133 -155 194 -247 36 -54 83 -123 105 -153 23 -30 53 -73 68 -95 57
-84 178 -240 228 -294 28 -31 63 -78 78 -106 24 -45 67 -114 121 -192 10 -15
36 -47 56 -69 21 -23 45 -57 54 -75 10 -19 33 -53 51 -76 19 -23 34 -44 34
-48 0 -3 18 -25 40 -47 22 -23 40 -46 40 -50 0 -4 10 -8 23 -8 12 0 37 -9 56
-21 27 -16 36 -18 42 -7 5 7 9 16 9 19 0 6 80 85 160 159 97 90 144 137 167
166 14 19 32 34 39 34 8 0 14 3 14 8 0 4 30 39 66 77 36 39 75 81 88 95 13 14
52 50 87 80 35 30 133 123 219 206 85 82 184 177 220 209 36 33 101 93 145
135 206 193 359 336 378 353 195 169 1106 1061 1191 1167 45 55 94 131 84 130
-2 0 -11 -7 -22 -15z"/>
<path d="M15175 11443 c-16 -36 -23 -68 -44 -193 -6 -30 -15 -71 -20 -90 -6
-19 -9 -42 -6 -51 3 -8 -4 -36 -14 -60 -11 -25 -25 -69 -30 -99 -22 -118 -33
-164 -46 -184 -15 -22 -75 -187 -75 -205 0 -21 -265 -564 -291 -597 -9 -11
-22 -35 -77 -139 -8 -16 -19 -32 -22 -35 -4 -3 -20 -30 -35 -60 -16 -30 -52
-91 -80 -135 -28 -44 -60 -94 -71 -112 -10 -17 -35 -53 -54 -80 -35 -48 -86
-137 -116 -203 -9 -19 -22 -38 -29 -42 -15 -9 -40 -66 -32 -75 4 -3 13 -1 21
6 11 9 15 8 20 -5 8 -20 -9 -120 -28 -166 -7 -18 -16 -80 -20 -138 -4 -58 -11
-118 -16 -135 -9 -30 -30 -203 -50 -405 -6 -58 -15 -132 -20 -165 -6 -33 -21
-152 -35 -265 -36 -293 -45 -356 -60 -440 -8 -41 -23 -160 -35 -265 -11 -104
-27 -233 -35 -285 -19 -123 -42 -307 -50 -395 -4 -38 -15 -122 -25 -185 -11
-63 -24 -173 -30 -245 -6 -71 -20 -200 -31 -285 -10 -85 -24 -247 -29 -360 -6
-113 -12 -214 -15 -226 -2 -11 -9 -102 -15 -202 -5 -100 -15 -264 -20 -364 -6
-101 -13 -225 -15 -278 -3 -52 -7 -140 -10 -195 -3 -55 -7 -147 -10 -205 -3
-58 -7 -145 -10 -195 -3 -49 -9 -175 -15 -280 -13 -251 -28 -472 -45 -680 -39
-472 -46 -557 -56 -645 -11 -109 -35 -400 -49 -605 -6 -77 -14 -180 -20 -230
-5 -49 -12 -133 -15 -185 -4 -52 -8 -115 -11 -140 -10 -119 -14 -166 -24 -310
-6 -85 -13 -189 -16 -230 -6 -88 -32 -313 -40 -353 l-6 -27 136 0 c84 0 136 4
136 10 0 6 58 10 155 10 97 0 155 4 155 10 0 6 41 10 104 10 80 0 108 4 120
15 11 11 39 15 115 15 83 0 101 3 101 15 0 12 17 15 90 15 53 0 90 4 90 10 0
6 35 10 84 10 62 0 87 4 96 15 9 11 33 15 86 15 43 0 74 4 74 10 0 6 27 10 60
10 45 0 62 4 66 15 5 11 22 15 70 15 50 0 64 3 64 15 0 12 14 15 65 15 37 0
65 4 65 10 0 6 20 10 45 10 33 0 45 4 45 15 0 7 6 18 13 22 17 11 36 58 48
117 5 28 21 72 35 99 13 26 22 52 18 58 -3 5 -1 15 4 22 6 7 16 35 23 62 6 28
22 70 34 95 12 25 28 64 34 85 22 70 55 150 67 163 7 6 20 36 28 65 9 29 25
64 36 77 11 13 20 31 20 41 0 10 4 20 8 23 8 5 67 120 127 246 14 30 35 73 47
95 33 63 38 74 38 90 0 9 12 28 26 42 28 28 54 81 54 110 0 10 21 54 46 98 25
44 46 90 46 103 0 13 6 26 13 29 8 2 32 53 56 111 23 59 47 114 54 122 6 8 21
48 34 88 12 40 31 80 41 90 22 21 50 86 50 118 0 13 5 24 10 24 6 0 10 8 10
19 0 10 7 24 15 31 8 7 34 47 56 90 23 43 49 80 58 83 10 2 22 24 29 55 9 33
22 56 37 66 14 10 29 34 37 63 9 32 21 51 35 58 12 5 34 33 49 61 15 29 35 55
45 57 10 3 28 27 40 53 30 63 59 104 76 104 7 0 16 13 19 29 3 16 18 42 33 58
53 58 91 111 91 127 0 9 6 16 13 16 13 0 77 83 77 100 0 6 6 10 14 10 8 0 20
15 26 34 6 19 17 40 25 46 8 7 13 16 10 20 -3 4 2 13 10 20 8 7 15 21 15 31 0
10 11 26 25 35 14 9 25 26 25 38 0 26 10 41 31 48 16 6 59 83 59 105 0 6 7 16
15 23 8 7 15 21 15 31 0 11 7 19 15 19 9 0 20 12 26 28 6 15 15 35 20 44 5 10
9 26 9 37 0 12 6 18 17 17 9 0 22 9 28 21 7 13 19 31 27 40 8 10 18 31 22 47
4 16 20 41 37 57 16 15 29 31 29 36 0 18 31 73 41 73 6 0 21 25 35 55 14 30
30 55 35 55 5 0 9 9 9 20 0 12 11 31 25 43 16 14 28 37 32 62 3 22 11 45 17
50 7 6 15 18 19 27 3 10 16 18 27 18 11 0 20 7 20 15 0 17 43 90 60 100 5 3
10 14 10 23 0 10 14 33 31 52 18 19 33 46 34 60 4 36 23 82 45 105 10 11 28
45 41 75 12 30 31 62 42 71 17 14 37 55 54 114 4 11 14 31 25 44 10 13 18 32
18 42 0 10 4 20 9 24 5 3 12 19 16 36 4 16 18 42 32 57 23 24 34 45 75 142 6
14 14 32 19 40 5 8 13 25 19 38 5 12 13 22 18 22 7 0 29 45 63 128 5 12 13 22
18 22 8 0 61 92 61 105 0 3 0 12 0 20 0 8 9 15 20 15 21 0 45 43 36 65 -2 7
11 28 30 49 19 20 34 43 34 51 0 8 9 19 20 25 12 6 20 21 20 35 0 14 4 25 9
25 5 0 16 18 25 40 9 22 19 40 23 40 8 0 33 48 33 63 0 18 75 126 91 130 9 2
21 24 28 48 9 31 22 50 44 64 22 14 33 30 35 49 2 16 12 38 23 49 10 11 19 27
19 34 0 7 8 17 19 22 10 6 21 24 24 41 4 18 13 30 22 30 8 0 15 3 16 8 3 29
10 49 28 73 12 16 21 33 21 39 0 6 11 16 25 22 15 6 25 20 26 32 2 65 16 91
54 100 15 4 26 14 27 26 0 11 1 26 2 33 0 6 29 47 63 89 35 43 63 84 63 91 0
8 5 29 11 46 10 27 15 32 34 27 25 -6 35 8 35 48 0 24 41 76 59 76 10 0 27 65
23 87 -2 7 8 19 22 28 13 9 27 27 30 40 3 13 19 36 34 52 27 27 62 90 62 111
0 5 16 22 35 36 20 15 35 36 35 47 0 28 18 59 34 59 16 0 46 42 46 64 0 8 13
24 28 35 23 16 28 26 24 49 -3 25 1 32 27 43 29 13 51 50 51 88 0 9 14 24 30
33 18 10 30 25 30 37 0 31 19 66 42 76 12 6 27 26 33 45 8 24 18 34 29 32 16
-3 21 19 17 74 -2 26 20 46 53 48 20 1 25 6 24 26 -4 59 2 80 21 80 21 0 31
19 31 56 0 13 13 36 30 52 17 16 30 36 30 45 0 26 11 47 26 47 8 0 18 19 25
44 6 25 20 52 30 62 10 9 19 22 19 27 0 31 54 119 116 190 8 10 14 30 13 45
-2 15 1 38 5 50 10 30 -26 72 -61 72 -12 0 -40 7 -60 14 -21 8 -76 22 -123 31
-47 9 -103 21 -125 26 -22 5 -71 13 -110 19 -38 6 -97 19 -130 29 -33 11 -82
24 -110 29 -127 27 -232 56 -250 68 -11 8 -36 14 -56 14 -37 0 -81 8 -204 35
-128 30 -349 76 -455 95 -58 11 -111 22 -118 25 -7 3 -42 9 -78 15 -64 10
-173 39 -330 86 -45 13 -95 24 -110 24 -16 0 -74 16 -129 35 -55 19 -111 35
-123 35 -13 0 -54 9 -90 19 -70 20 -200 49 -337 77 -44 8 -120 24 -170 35 -49
11 -124 26 -165 34 -41 8 -106 21 -145 29 -38 7 -96 14 -128 15 -33 0 -62 3
-66 6 -7 3 -232 20 -529 39 -40 2 -81 13 -115 29 -28 14 -77 31 -107 38 -74
16 -113 37 -190 105 -111 97 -142 128 -245 244 -55 63 -138 155 -184 204 -79
87 -158 184 -229 283 -50 70 -87 110 -110 117 -18 6 -24 1 -37 -31z"/>
<path d="M9562 10743 c-6 -21 -16 -60 -23 -86 -7 -27 -18 -51 -26 -54 -7 -3
-32 -34 -54 -68 -22 -35 -58 -75 -80 -89 -33 -22 -39 -32 -39 -62 0 -29 -9
-44 -46 -82 -25 -25 -70 -75 -99 -111 -29 -36 -62 -75 -74 -85 -11 -11 -21
-24 -21 -31 0 -14 -146 -207 -166 -218 -20 -11 -34 0 -27 21 7 20 59 90 82
112 9 8 29 34 45 58 16 23 32 42 37 42 10 0 59 96 59 116 0 8 -4 14 -10 14
-10 0 -122 -65 -215 -126 -95 -61 -133 -75 -230 -84 -49 -4 -105 -13 -123 -19
-19 -5 -71 -17 -117 -26 -98 -18 -329 -95 -397 -132 -26 -14 -54 -36 -62 -48
-8 -12 -28 -28 -45 -35 -17 -6 -39 -27 -50 -46 -15 -26 -27 -34 -48 -34 l-28
0 23 -18 c15 -11 21 -24 17 -34 -4 -11 0 -18 14 -23 17 -5 20 -14 19 -68 l-1
-62 -86 -85 c-47 -47 -98 -91 -113 -98 -36 -15 -35 -24 7 -56 44 -34 47 -75
10 -112 -28 -28 -31 -40 -12 -47 9 -4 9 -7 -1 -18 -10 -11 -16 -11 -32 -1 -19
11 -20 9 -20 -29 0 -38 -2 -41 -22 -35 -43 13 -53 11 -56 -11 -2 -13 4 -26 16
-32 14 -8 18 -17 14 -38 -8 -47 -37 -57 -52 -19 -6 18 -20 27 -45 32 -40 7
-47 24 -10 24 28 0 33 21 11 39 -11 9 -20 10 -36 1 -16 -9 -22 -8 -27 6 -4 10
0 20 10 26 27 14 20 26 -14 24 -18 0 -34 5 -36 12 -3 7 4 12 16 12 33 0 34 18
1 35 -41 21 -67 85 -35 85 18 0 20 21 3 38 -10 10 -10 17 0 33 11 17 11 24 -2
38 -21 24 -2 97 36 133 25 24 41 67 19 53 -17 -10 -21 12 -6 25 21 17 19 30
-5 30 -12 0 -35 7 -52 16 -39 20 -72 12 -246 -57 -70 -28 -158 -62 -197 -76
-38 -14 -102 -41 -142 -59 -40 -19 -76 -34 -81 -34 -4 0 -27 -14 -50 -31 -42
-30 -300 -139 -332 -139 -9 0 -20 -4 -25 -8 -12 -9 -67 -28 -113 -37 -39 -8
-98 -61 -107 -97 -9 -34 31 -149 101 -293 57 -119 68 -143 209 -490 129 -317
158 -388 190 -475 16 -41 40 -87 53 -102 14 -16 31 -56 42 -100 23 -92 105
-315 194 -528 15 -36 42 -105 61 -155 18 -49 46 -119 60 -155 75 -182 121
-294 155 -380 96 -244 144 -360 170 -415 15 -33 38 -91 50 -128 12 -37 32 -87
45 -110 13 -23 34 -69 46 -102 12 -33 28 -69 36 -81 7 -11 28 -67 47 -125 18
-57 56 -161 84 -231 28 -70 57 -151 66 -181 22 -76 39 -87 60 -42 10 20 23 57
30 83 29 105 67 225 121 377 30 88 74 216 97 285 57 173 131 389 168 490 17
47 36 101 42 120 5 19 16 49 23 65 34 75 133 389 187 595 64 244 102 384 142
530 21 74 53 194 72 265 19 72 41 153 49 181 8 28 15 58 15 66 0 8 20 75 44
149 24 74 51 161 61 194 11 33 31 87 47 120 15 33 28 67 28 76 0 9 25 38 55
64 30 27 55 54 55 60 0 7 16 27 37 44 20 17 45 46 56 63 11 18 28 42 38 53 58
65 69 79 69 91 0 7 27 32 59 56 33 24 60 48 60 54 1 7 9 14 20 17 15 3 21 20
31 78 7 41 16 88 21 104 6 17 14 71 19 120 4 50 20 135 34 190 14 55 31 120
37 145 7 25 22 74 34 110 12 36 30 94 40 130 9 36 25 94 35 130 38 133 41 168
34 460 -3 157 -9 289 -13 293 -4 4 -13 -9 -19 -30z m-1932 -1911 c0 -11 -65
-46 -111 -61 -20 -6 -53 -20 -74 -31 -22 -11 -46 -20 -55 -20 -9 0 -26 -8 -40
-17 -13 -9 -47 -20 -74 -24 -28 -5 -62 -11 -75 -15 -18 -5 -23 -4 -19 7 5 16
71 53 120 68 48 14 167 60 191 73 11 6 43 14 71 18 28 4 54 8 59 9 4 0 7 -3 7
-7z m-180 -537 c9 -11 9 -19 -3 -36 -14 -20 -14 -24 5 -50 13 -18 24 -52 28
-96 4 -37 11 -77 15 -89 7 -21 -38 -85 -93 -131 -36 -30 -112 -31 -152 -3 -51
37 -83 152 -45 166 20 8 19 19 -7 56 -17 23 -20 32 -10 35 7 3 18 12 25 20 7
8 22 24 34 35 12 11 24 31 27 44 5 19 13 24 39 24 17 1 48 9 67 19 44 24 55
25 70 6z"/>
<path d="M11030 8973 c-45 -8 -265 -85 -268 -94 -2 -5 -14 -6 -27 -3 -16 4
-48 -8 -106 -39 l-84 -45 -1 -54 c-1 -38 5 -67 22 -101 13 -27 24 -52 24 -57
0 -7 29 -59 76 -135 13 -22 30 -50 36 -62 12 -25 28 -29 45 -12 7 7 19 9 27 6
18 -7 11 -35 -12 -53 -12 -8 -10 -17 9 -55 12 -24 32 -53 45 -64 12 -11 28
-38 35 -60 6 -22 23 -56 35 -75 13 -19 24 -38 24 -43 0 -4 10 -21 21 -37 18
-24 25 -27 40 -17 24 15 36 1 21 -23 -10 -17 -8 -28 10 -64 13 -25 33 -49 45
-55 14 -6 27 -26 34 -53 7 -24 18 -50 25 -58 24 -29 42 -85 54 -170 7 -47 19
-97 27 -111 14 -23 14 -28 0 -50 -9 -13 -23 -43 -31 -67 -8 -23 -26 -57 -39
-75 -32 -41 -97 -166 -97 -184 0 -9 7 -12 26 -7 23 6 25 4 22 -17 -2 -20 -8
-24 -32 -22 l-29 2 7 -92 c5 -61 12 -96 22 -103 19 -15 18 -33 -6 -69 -11 -16
-20 -42 -20 -56 0 -15 -13 -59 -30 -97 -16 -39 -30 -76 -30 -82 0 -6 -13 -38
-29 -73 -42 -89 -56 -125 -75 -187 -22 -70 -31 -97 -67 -195 -15 -44 -28 -95
-29 -114 0 -18 -14 -62 -30 -97 -24 -49 -32 -81 -35 -140 -3 -60 -8 -80 -24
-95 -11 -10 -23 -38 -26 -64 -4 -25 -11 -45 -15 -45 -8 0 -30 -77 -30 -104 0
-10 6 -13 16 -9 12 5 15 0 12 -23 -2 -21 -9 -30 -25 -32 -17 -3 -25 -16 -38
-60 -10 -31 -23 -77 -31 -101 -8 -25 -14 -53 -14 -64 0 -19 1 -19 18 -4 41 37
57 9 21 -37 -16 -20 -24 -24 -34 -16 -18 15 -35 -16 -35 -62 0 -18 -9 -58 -20
-88 -11 -30 -20 -64 -20 -75 0 -19 -31 -177 -52 -265 -13 -56 -26 -126 -38
-210 -5 -36 -16 -91 -24 -123 -9 -32 -16 -75 -16 -95 0 -20 -5 -53 -10 -72 -6
-19 -15 -73 -20 -120 -12 -114 -28 -221 -46 -305 -8 -38 -19 -117 -24 -175 -4
-58 -11 -113 -15 -123 -6 -15 -4 -17 19 -11 22 5 26 3 26 -14 0 -11 -14 -33
-30 -49 -23 -21 -30 -37 -30 -63 0 -19 -4 -57 -9 -85 -15 -76 -13 -92 9 -98
21 -5 26 -32 11 -56 -8 -12 -12 -13 -25 -1 -9 7 -18 11 -21 9 -2 -3 -9 -47
-16 -99 -6 -52 -17 -106 -24 -120 -7 -14 -16 -61 -20 -105 -4 -44 -11 -84 -15
-90 -4 -5 -12 -32 -18 -60 -31 -138 -52 -244 -58 -285 -3 -25 -12 -67 -20 -95
-7 -27 -16 -70 -18 -95 -2 -25 -11 -67 -20 -95 -8 -27 -20 -83 -27 -124 -6
-41 -17 -92 -25 -114 -8 -22 -14 -56 -14 -76 0 -21 -7 -60 -15 -89 -9 -28 -17
-80 -20 -116 -2 -36 -6 -70 -10 -76 -7 -11 -23 -98 -31 -170 -3 -25 -8 -52
-11 -60 -2 -8 -9 -58 -14 -110 -6 -52 -14 -135 -19 -185 -23 -221 -24 -243 -6
-269 9 -14 16 -39 16 -55 0 -23 -5 -30 -22 -33 -44 -6 -51 -128 -7 -128 11 0
18 -4 15 -9 -7 -10 27 -21 66 -21 15 0 30 -5 33 -10 3 -6 33 -10 66 -10 46 0
59 -3 59 -15 0 -12 13 -15 55 -15 30 0 55 -4 55 -10 0 -6 28 -10 65 -10 51 0
65 -3 65 -15 0 -12 13 -15 61 -15 40 0 65 -5 75 -15 11 -10 36 -15 80 -15 36
0 64 -4 64 -10 0 -6 33 -10 80 -10 64 0 80 -3 80 -15 0 -10 11 -15 35 -15 l34
0 -17 29 c-13 24 -14 34 -4 55 14 32 47 34 56 3 10 -37 7 -75 -6 -80 -7 -3 4
-6 25 -6 20 -1 37 -5 37 -11 0 -5 18 -10 40 -10 35 0 40 3 40 23 0 13 9 32 19
41 19 17 20 17 36 -8 10 -14 15 -33 11 -41 -4 -11 2 -15 25 -15 16 0 41 -8 56
-17 25 -16 26 -16 45 10 25 34 51 35 66 2 10 -21 18 -25 56 -25 30 0 46 -5 50
-15 7 -19 40 -19 56 0 16 19 40 19 40 0 0 -12 14 -15 65 -15 37 0 65 -4 65
-10 0 -5 24 -10 54 -10 l55 0 -1 152 c0 84 1 155 1 158 2 6 13 589 12 613 -3
52 -2 83 23 612 3 55 10 125 16 155 7 30 15 105 20 165 4 61 15 169 24 240 9
72 14 140 11 151 -3 12 2 38 10 58 9 22 17 83 20 158 3 68 10 152 16 188 5 36
14 126 19 200 6 74 13 151 16 170 9 53 16 256 18 540 1 249 9 325 45 469 5 20
12 63 16 96 8 78 42 273 60 350 32 139 66 393 53 401 -4 3 -15 -7 -24 -21 -18
-28 -34 -33 -34 -11 0 8 18 29 40 48 40 33 41 34 51 128 5 52 12 102 15 110 7
19 26 196 30 275 3 61 27 271 40 336 7 41 -7 59 -31 39 -13 -10 -15 -8 -15 13
0 14 -7 30 -16 35 -11 6 -14 16 -9 32 6 19 12 22 46 17 44 -6 40 -18 44 128 2
56 -2 75 -18 96 -23 32 -16 69 14 69 16 0 19 7 19 40 0 46 -26 67 -44 35 -6
-10 -21 -30 -34 -44 l-24 -26 6 25 c3 14 6 38 6 53 0 33 24 46 52 28 36 -22
65 22 33 49 -8 7 -15 19 -15 28 0 8 -7 23 -16 33 -20 23 -10 57 19 61 21 3 22
9 25 97 2 57 -1 98 -7 104 -15 15 -13 48 4 71 20 27 9 170 -16 212 -24 40 -24
54 1 54 19 0 20 7 20 95 0 57 -4 95 -10 95 -5 0 -10 -6 -10 -12 0 -7 -5 -20
-10 -28 -9 -13 -11 -13 -20 0 -19 29 -10 54 34 96 24 23 47 51 51 63 3 11 13
21 20 21 35 0 115 105 115 151 0 10 13 33 29 51 15 18 36 49 46 68 10 19 29
49 42 65 98 123 137 178 163 230 16 33 43 80 60 105 16 25 30 50 30 56 0 6 22
35 49 63 27 28 56 67 66 87 9 19 23 38 30 40 17 7 75 95 75 115 0 8 8 19 19
26 12 8 23 34 32 79 8 41 23 79 37 96 13 16 22 34 19 42 -3 7 -40 21 -84 30
-43 9 -98 24 -123 32 -69 24 -130 36 -186 38 -28 0 -58 7 -66 14 -8 6 -39 21
-69 31 -30 10 -88 33 -129 51 -41 17 -97 38 -125 46 -27 8 -58 19 -68 25 -10
5 -89 12 -175 14 -86 3 -204 8 -262 11 -108 7 -439 6 -567 -1 -81 -5 -104 7
-78 41 26 34 22 37 -35 27z"/>
</g>
</svg>
